<svg width="15" height="16" viewBox="0 0 15 16" fill="none" xmlns="http://www.w3.org/2000/svg">
<path d="M12.2356 10.6665C11.9362 10.6676 11.6402 10.7292 11.3653 10.8476C11.0903 10.966 10.8421 11.1387 10.6356 11.3553L5.21781 8.64423C5.35108 8.24012 5.35108 7.80389 5.21781 7.39978L10.6445 4.63978C11.0332 5.0494 11.5603 5.29985 12.1234 5.34247C12.6864 5.3851 13.2453 5.21684 13.6912 4.8704C14.1371 4.52397 14.4383 4.0241 14.5362 3.46797C14.6341 2.91184 14.5218 2.33917 14.221 1.86126C13.9202 1.38336 13.4524 1.03437 12.9086 0.882122C12.3649 0.729874 11.7839 0.785247 11.2787 1.03748C10.7735 1.28971 10.3801 1.72078 10.175 2.2469C9.96987 2.77302 9.96771 3.3566 10.1689 3.88423L4.79559 6.61756C4.50539 6.26265 4.11252 6.00618 3.67084 5.88331C3.22916 5.76043 2.76028 5.77718 2.32849 5.93123C1.8967 6.08529 1.52312 6.36913 1.25897 6.74384C0.994821 7.11854 0.853027 7.56578 0.853027 8.02423C0.853027 8.48268 0.994821 8.92991 1.25897 9.30462C1.52312 9.67933 1.8967 9.96316 2.32849 10.1172C2.76028 10.2713 3.22916 10.288 3.67084 10.1652C4.11252 10.0423 4.50539 9.78581 4.79559 9.43089L10.1556 12.1287C10.065 12.3719 10.0184 12.6292 10.0178 12.8887C10.0178 13.3282 10.1481 13.7578 10.3923 14.1233C10.6365 14.4887 10.9836 14.7735 11.3896 14.9417C11.7957 15.1099 12.2425 15.1539 12.6736 15.0682C13.1046 14.9825 13.5006 14.7708 13.8114 14.46C14.1222 14.1492 14.3338 13.7533 14.4196 13.3222C14.5053 12.8911 14.4613 12.4443 14.2931 12.0383C14.1249 11.6322 13.8401 11.2851 13.4746 11.041C13.1092 10.7968 12.6795 10.6665 12.24 10.6665H12.2356Z" fill="#ECF1F0"/>
</svg>
